<mxfile host="app.diagrams.net" modified="2023-09-22T19:14:34.256Z" agent="Mozilla/5.0 (Windows NT 10.0; Win64; x64) AppleWebKit/537.36 (KHTML, like Gecko) Chrome/116.0.0.0 Safari/537.36" version="21.7.5" etag="ez5l4VngYA65pZlA8hlA" type="device">
  <diagram id="EZuxX3zJ3F-9GoeclZzp" name="Страница — 1">
    <mxGraphModel dx="2327" dy="830" grid="1" gridSize="10" guides="1" tooltips="1" connect="1" arrows="1" fold="1" page="1" pageScale="1" pageWidth="827" pageHeight="1169" math="0" shadow="0">
      <root>
        <mxCell id="0" />
        <mxCell id="1" parent="0" />
        <mxCell id="2LeZSTkO9BxlxIvGosQx-70" style="edgeStyle=orthogonalEdgeStyle;rounded=0;orthogonalLoop=1;jettySize=auto;html=1;exitX=0.5;exitY=1;exitDx=0;exitDy=0;entryX=0.5;entryY=0;entryDx=0;entryDy=0;fontFamily=Helvetica;fontSize=18;fontColor=default;" edge="1" parent="1" source="2LeZSTkO9BxlxIvGosQx-2" target="2LeZSTkO9BxlxIvGosQx-7">
          <mxGeometry relative="1" as="geometry" />
        </mxCell>
        <mxCell id="2LeZSTkO9BxlxIvGosQx-2" value="" style="rounded=0;whiteSpace=wrap;html=1;fillColor=#dae8fc;strokeColor=#6c8ebf;" vertex="1" parent="1">
          <mxGeometry x="-10" y="30" width="250" height="300" as="geometry" />
        </mxCell>
        <mxCell id="2LeZSTkO9BxlxIvGosQx-77" style="edgeStyle=orthogonalEdgeStyle;rounded=0;orthogonalLoop=1;jettySize=auto;html=1;exitX=0;exitY=0.5;exitDx=0;exitDy=0;entryX=1.009;entryY=0.561;entryDx=0;entryDy=0;entryPerimeter=0;fontFamily=Helvetica;fontSize=18;fontColor=default;" edge="1" parent="1" source="2LeZSTkO9BxlxIvGosQx-3" target="2LeZSTkO9BxlxIvGosQx-7">
          <mxGeometry relative="1" as="geometry" />
        </mxCell>
        <mxCell id="2LeZSTkO9BxlxIvGosQx-3" value="" style="rounded=0;whiteSpace=wrap;html=1;fillColor=#dae8fc;strokeColor=#6c8ebf;" vertex="1" parent="1">
          <mxGeometry x="330" y="380" width="250" height="190" as="geometry" />
        </mxCell>
        <mxCell id="2LeZSTkO9BxlxIvGosQx-4" value="" style="rounded=0;whiteSpace=wrap;html=1;fillColor=#dae8fc;strokeColor=#6c8ebf;" vertex="1" parent="1">
          <mxGeometry x="660" y="380" width="250" height="190" as="geometry" />
        </mxCell>
        <mxCell id="2LeZSTkO9BxlxIvGosQx-5" value="" style="rounded=0;whiteSpace=wrap;html=1;fillColor=#dae8fc;strokeColor=#6c8ebf;" vertex="1" parent="1">
          <mxGeometry x="660" y="30" width="250" height="240" as="geometry" />
        </mxCell>
        <mxCell id="2LeZSTkO9BxlxIvGosQx-75" style="edgeStyle=orthogonalEdgeStyle;rounded=0;orthogonalLoop=1;jettySize=auto;html=1;exitX=1;exitY=0.5;exitDx=0;exitDy=0;entryX=-0.007;entryY=0.626;entryDx=0;entryDy=0;entryPerimeter=0;fontFamily=Helvetica;fontSize=18;fontColor=default;" edge="1" parent="1" source="2LeZSTkO9BxlxIvGosQx-6" target="2LeZSTkO9BxlxIvGosQx-5">
          <mxGeometry relative="1" as="geometry" />
        </mxCell>
        <mxCell id="2LeZSTkO9BxlxIvGosQx-6" value="" style="rounded=0;whiteSpace=wrap;html=1;fillColor=#dae8fc;strokeColor=#6c8ebf;" vertex="1" parent="1">
          <mxGeometry x="330" y="30" width="250" height="300" as="geometry" />
        </mxCell>
        <mxCell id="2LeZSTkO9BxlxIvGosQx-73" style="edgeStyle=orthogonalEdgeStyle;rounded=0;orthogonalLoop=1;jettySize=auto;html=1;exitX=0.5;exitY=1;exitDx=0;exitDy=0;entryX=0.5;entryY=1;entryDx=0;entryDy=0;fontFamily=Helvetica;fontSize=18;fontColor=default;" edge="1" parent="1" source="2LeZSTkO9BxlxIvGosQx-7" target="2LeZSTkO9BxlxIvGosQx-4">
          <mxGeometry relative="1" as="geometry" />
        </mxCell>
        <mxCell id="2LeZSTkO9BxlxIvGosQx-78" style="edgeStyle=orthogonalEdgeStyle;rounded=0;orthogonalLoop=1;jettySize=auto;html=1;exitX=1;exitY=0.25;exitDx=0;exitDy=0;entryX=0.5;entryY=1;entryDx=0;entryDy=0;fontFamily=Helvetica;fontSize=18;fontColor=default;" edge="1" parent="1" source="2LeZSTkO9BxlxIvGosQx-7" target="2LeZSTkO9BxlxIvGosQx-6">
          <mxGeometry relative="1" as="geometry">
            <Array as="points">
              <mxPoint x="290" y="423" />
              <mxPoint x="290" y="360" />
              <mxPoint x="455" y="360" />
            </Array>
          </mxGeometry>
        </mxCell>
        <mxCell id="2LeZSTkO9BxlxIvGosQx-7" value="" style="rounded=0;whiteSpace=wrap;html=1;fillColor=#dae8fc;strokeColor=#6c8ebf;" vertex="1" parent="1">
          <mxGeometry x="-10" y="380" width="250" height="170" as="geometry" />
        </mxCell>
        <mxCell id="2LeZSTkO9BxlxIvGosQx-8" value="Личная информация" style="text;html=1;strokeColor=none;fillColor=none;align=center;verticalAlign=middle;whiteSpace=wrap;rounded=0;fontSize=19;fontStyle=1" vertex="1" parent="1">
          <mxGeometry x="20" y="40" width="207.5" height="30" as="geometry" />
        </mxCell>
        <mxCell id="2LeZSTkO9BxlxIvGosQx-10" value="-regID:int" style="text;html=1;strokeColor=none;fillColor=none;align=left;verticalAlign=middle;whiteSpace=wrap;rounded=0;fontSize=18;" vertex="1" parent="1">
          <mxGeometry y="85" width="110" height="30" as="geometry" />
        </mxCell>
        <mxCell id="2LeZSTkO9BxlxIvGosQx-11" value="+FIO:string" style="text;html=1;strokeColor=none;fillColor=none;align=left;verticalAlign=middle;whiteSpace=wrap;rounded=0;fontSize=18;" vertex="1" parent="1">
          <mxGeometry y="115" width="110" height="30" as="geometry" />
        </mxCell>
        <mxCell id="2LeZSTkO9BxlxIvGosQx-13" value="+age:int" style="text;html=1;strokeColor=none;fillColor=none;align=left;verticalAlign=middle;whiteSpace=wrap;rounded=0;fontSize=18;" vertex="1" parent="1">
          <mxGeometry y="145" width="110" height="30" as="geometry" />
        </mxCell>
        <mxCell id="2LeZSTkO9BxlxIvGosQx-14" value="+gender:string" style="text;html=1;strokeColor=none;fillColor=none;align=left;verticalAlign=middle;whiteSpace=wrap;rounded=0;fontSize=18;" vertex="1" parent="1">
          <mxGeometry y="175" width="110" height="30" as="geometry" />
        </mxCell>
        <mxCell id="2LeZSTkO9BxlxIvGosQx-15" value="+post:string" style="text;html=1;strokeColor=none;fillColor=none;align=left;verticalAlign=middle;whiteSpace=wrap;rounded=0;fontSize=18;" vertex="1" parent="1">
          <mxGeometry y="205" width="110" height="30" as="geometry" />
        </mxCell>
        <mxCell id="2LeZSTkO9BxlxIvGosQx-16" value="+create()" style="text;html=1;strokeColor=none;fillColor=none;align=left;verticalAlign=middle;whiteSpace=wrap;rounded=0;fontSize=18;" vertex="1" parent="1">
          <mxGeometry y="240" width="110" height="30" as="geometry" />
        </mxCell>
        <mxCell id="2LeZSTkO9BxlxIvGosQx-17" value="+delete()" style="text;html=1;strokeColor=none;fillColor=none;align=left;verticalAlign=middle;whiteSpace=wrap;rounded=0;fontSize=18;" vertex="1" parent="1">
          <mxGeometry y="300" width="110" height="30" as="geometry" />
        </mxCell>
        <mxCell id="2LeZSTkO9BxlxIvGosQx-18" value="+update()" style="text;html=1;strokeColor=none;fillColor=none;align=left;verticalAlign=middle;whiteSpace=wrap;rounded=0;fontSize=18;" vertex="1" parent="1">
          <mxGeometry y="270" width="110" height="30" as="geometry" />
        </mxCell>
        <mxCell id="2LeZSTkO9BxlxIvGosQx-19" value="Информация для входа" style="text;html=1;strokeColor=none;fillColor=none;align=center;verticalAlign=middle;whiteSpace=wrap;rounded=0;fontSize=19;fontStyle=1" vertex="1" parent="1">
          <mxGeometry x="330" y="40" width="250" height="30" as="geometry" />
        </mxCell>
        <mxCell id="2LeZSTkO9BxlxIvGosQx-20" value="Логи" style="text;html=1;strokeColor=none;fillColor=none;align=center;verticalAlign=middle;whiteSpace=wrap;rounded=0;fontSize=19;fontStyle=1" vertex="1" parent="1">
          <mxGeometry x="700" y="40" width="170" height="30" as="geometry" />
        </mxCell>
        <mxCell id="2LeZSTkO9BxlxIvGosQx-21" value="Тип пользователей" style="text;html=1;strokeColor=none;fillColor=none;align=center;verticalAlign=middle;whiteSpace=wrap;rounded=0;fontSize=19;fontStyle=1" vertex="1" parent="1">
          <mxGeometry x="360" y="380" width="190" height="40" as="geometry" />
        </mxCell>
        <mxCell id="2LeZSTkO9BxlxIvGosQx-22" value="Пользователи" style="text;html=1;strokeColor=none;fillColor=none;align=center;verticalAlign=middle;whiteSpace=wrap;rounded=0;fontSize=19;fontStyle=1" vertex="1" parent="1">
          <mxGeometry x="20" y="390" width="190" height="30" as="geometry" />
        </mxCell>
        <mxCell id="2LeZSTkO9BxlxIvGosQx-74" style="edgeStyle=orthogonalEdgeStyle;rounded=0;orthogonalLoop=1;jettySize=auto;html=1;exitX=0.5;exitY=0;exitDx=0;exitDy=0;entryX=0.5;entryY=1;entryDx=0;entryDy=0;fontFamily=Helvetica;fontSize=18;fontColor=default;" edge="1" parent="1" source="2LeZSTkO9BxlxIvGosQx-23" target="2LeZSTkO9BxlxIvGosQx-5">
          <mxGeometry relative="1" as="geometry" />
        </mxCell>
        <mxCell id="2LeZSTkO9BxlxIvGosQx-23" value="Задачи" style="text;html=1;strokeColor=none;fillColor=none;align=center;verticalAlign=middle;whiteSpace=wrap;rounded=0;fontSize=19;fontStyle=1" vertex="1" parent="1">
          <mxGeometry x="700" y="380" width="170" height="40" as="geometry" />
        </mxCell>
        <mxCell id="2LeZSTkO9BxlxIvGosQx-24" value="" style="endArrow=none;html=1;rounded=0;fontFamily=Helvetica;fontSize=18;fontColor=default;exitX=0.007;exitY=0.691;exitDx=0;exitDy=0;exitPerimeter=0;entryX=1.001;entryY=0.691;entryDx=0;entryDy=0;entryPerimeter=0;" edge="1" parent="1" source="2LeZSTkO9BxlxIvGosQx-2" target="2LeZSTkO9BxlxIvGosQx-2">
          <mxGeometry width="50" height="50" relative="1" as="geometry">
            <mxPoint x="420" y="340" as="sourcePoint" />
            <mxPoint x="470" y="290" as="targetPoint" />
          </mxGeometry>
        </mxCell>
        <mxCell id="2LeZSTkO9BxlxIvGosQx-25" value="" style="endArrow=none;html=1;rounded=0;fontFamily=Helvetica;fontSize=18;fontColor=default;exitX=0.001;exitY=0.155;exitDx=0;exitDy=0;exitPerimeter=0;" edge="1" parent="1" source="2LeZSTkO9BxlxIvGosQx-2">
          <mxGeometry width="50" height="50" relative="1" as="geometry">
            <mxPoint x="420" y="340" as="sourcePoint" />
            <mxPoint x="240" y="77" as="targetPoint" />
          </mxGeometry>
        </mxCell>
        <mxCell id="2LeZSTkO9BxlxIvGosQx-26" value="-loginID:int" style="text;html=1;strokeColor=none;fillColor=none;align=left;verticalAlign=middle;whiteSpace=wrap;rounded=0;fontSize=18;" vertex="1" parent="1">
          <mxGeometry x="340" y="85" width="110" height="30" as="geometry" />
        </mxCell>
        <mxCell id="2LeZSTkO9BxlxIvGosQx-27" value="+accountnumber:int" style="text;html=1;strokeColor=none;fillColor=none;align=left;verticalAlign=middle;whiteSpace=wrap;rounded=0;fontSize=18;" vertex="1" parent="1">
          <mxGeometry x="340" y="115" width="110" height="30" as="geometry" />
        </mxCell>
        <mxCell id="2LeZSTkO9BxlxIvGosQx-28" value="+username:string" style="text;html=1;strokeColor=none;fillColor=none;align=left;verticalAlign=middle;whiteSpace=wrap;rounded=0;fontSize=18;" vertex="1" parent="1">
          <mxGeometry x="340" y="145" width="160" height="30" as="geometry" />
        </mxCell>
        <mxCell id="2LeZSTkO9BxlxIvGosQx-29" value="+password:string&lt;br&gt;" style="text;html=1;strokeColor=none;fillColor=none;align=left;verticalAlign=middle;whiteSpace=wrap;rounded=0;fontSize=18;" vertex="1" parent="1">
          <mxGeometry x="340" y="175" width="160" height="30" as="geometry" />
        </mxCell>
        <mxCell id="2LeZSTkO9BxlxIvGosQx-30" value="" style="endArrow=none;html=1;rounded=0;fontFamily=Helvetica;fontSize=18;fontColor=default;" edge="1" parent="1">
          <mxGeometry width="50" height="50" relative="1" as="geometry">
            <mxPoint x="330" y="80" as="sourcePoint" />
            <mxPoint x="580" y="80" as="targetPoint" />
          </mxGeometry>
        </mxCell>
        <mxCell id="2LeZSTkO9BxlxIvGosQx-31" value="+create()" style="text;html=1;strokeColor=none;fillColor=none;align=left;verticalAlign=middle;whiteSpace=wrap;rounded=0;fontSize=18;" vertex="1" parent="1">
          <mxGeometry x="340" y="205" width="110" height="30" as="geometry" />
        </mxCell>
        <mxCell id="2LeZSTkO9BxlxIvGosQx-32" value="+update()" style="text;html=1;strokeColor=none;fillColor=none;align=left;verticalAlign=middle;whiteSpace=wrap;rounded=0;fontSize=18;" vertex="1" parent="1">
          <mxGeometry x="340" y="265" width="110" height="30" as="geometry" />
        </mxCell>
        <mxCell id="2LeZSTkO9BxlxIvGosQx-33" value="+validate()" style="text;html=1;strokeColor=none;fillColor=none;align=left;verticalAlign=middle;whiteSpace=wrap;rounded=0;fontSize=18;" vertex="1" parent="1">
          <mxGeometry x="340" y="235" width="110" height="30" as="geometry" />
        </mxCell>
        <mxCell id="2LeZSTkO9BxlxIvGosQx-35" value="" style="endArrow=none;html=1;rounded=0;fontFamily=Helvetica;fontSize=18;fontColor=default;" edge="1" parent="1">
          <mxGeometry width="50" height="50" relative="1" as="geometry">
            <mxPoint x="330" y="205" as="sourcePoint" />
            <mxPoint x="580" y="205" as="targetPoint" />
          </mxGeometry>
        </mxCell>
        <mxCell id="2LeZSTkO9BxlxIvGosQx-36" value="+delete()" style="text;html=1;strokeColor=none;fillColor=none;align=left;verticalAlign=middle;whiteSpace=wrap;rounded=0;fontSize=18;" vertex="1" parent="1">
          <mxGeometry x="340" y="295" width="110" height="30" as="geometry" />
        </mxCell>
        <mxCell id="2LeZSTkO9BxlxIvGosQx-37" value="" style="endArrow=none;html=1;rounded=0;fontFamily=Helvetica;fontSize=18;fontColor=default;" edge="1" parent="1">
          <mxGeometry width="50" height="50" relative="1" as="geometry">
            <mxPoint x="660" y="80" as="sourcePoint" />
            <mxPoint x="910" y="80" as="targetPoint" />
          </mxGeometry>
        </mxCell>
        <mxCell id="2LeZSTkO9BxlxIvGosQx-38" value="" style="endArrow=none;html=1;rounded=0;fontFamily=Helvetica;fontSize=18;fontColor=default;" edge="1" parent="1">
          <mxGeometry width="50" height="50" relative="1" as="geometry">
            <mxPoint x="660" y="420" as="sourcePoint" />
            <mxPoint x="910" y="420" as="targetPoint" />
          </mxGeometry>
        </mxCell>
        <mxCell id="2LeZSTkO9BxlxIvGosQx-39" value="-logID:int" style="text;html=1;strokeColor=none;fillColor=none;align=left;verticalAlign=middle;whiteSpace=wrap;rounded=0;fontSize=18;" vertex="1" parent="1">
          <mxGeometry x="667" y="85" width="110" height="30" as="geometry" />
        </mxCell>
        <mxCell id="2LeZSTkO9BxlxIvGosQx-41" value="+loginTime:date" style="text;html=1;strokeColor=none;fillColor=none;align=left;verticalAlign=middle;whiteSpace=wrap;rounded=0;fontSize=18;" vertex="1" parent="1">
          <mxGeometry x="667" y="145" width="160" height="30" as="geometry" />
        </mxCell>
        <mxCell id="2LeZSTkO9BxlxIvGosQx-42" value="+logoutTime:date" style="text;html=1;strokeColor=none;fillColor=none;align=left;verticalAlign=middle;whiteSpace=wrap;rounded=0;fontSize=18;" vertex="1" parent="1">
          <mxGeometry x="667" y="175" width="160" height="30" as="geometry" />
        </mxCell>
        <mxCell id="2LeZSTkO9BxlxIvGosQx-43" value="+userAccount:int" style="text;html=1;strokeColor=none;fillColor=none;align=left;verticalAlign=middle;whiteSpace=wrap;rounded=0;fontSize=18;" vertex="1" parent="1">
          <mxGeometry x="667" y="115" width="110" height="30" as="geometry" />
        </mxCell>
        <mxCell id="2LeZSTkO9BxlxIvGosQx-44" value="" style="endArrow=none;html=1;rounded=0;fontFamily=Helvetica;fontSize=18;fontColor=default;" edge="1" parent="1">
          <mxGeometry width="50" height="50" relative="1" as="geometry">
            <mxPoint x="660" y="205" as="sourcePoint" />
            <mxPoint x="910" y="205" as="targetPoint" />
          </mxGeometry>
        </mxCell>
        <mxCell id="2LeZSTkO9BxlxIvGosQx-45" value="+print()" style="text;html=1;strokeColor=none;fillColor=none;align=left;verticalAlign=middle;whiteSpace=wrap;rounded=0;fontSize=18;" vertex="1" parent="1">
          <mxGeometry x="667" y="220" width="110" height="30" as="geometry" />
        </mxCell>
        <mxCell id="2LeZSTkO9BxlxIvGosQx-47" value="-activID:int" style="text;html=1;strokeColor=none;fillColor=none;align=left;verticalAlign=middle;whiteSpace=wrap;rounded=0;fontSize=18;" vertex="1" parent="1">
          <mxGeometry x="667" y="420" width="110" height="30" as="geometry" />
        </mxCell>
        <mxCell id="2LeZSTkO9BxlxIvGosQx-48" value="-date:date" style="text;html=1;strokeColor=none;fillColor=none;align=left;verticalAlign=middle;whiteSpace=wrap;rounded=0;fontSize=18;" vertex="1" parent="1">
          <mxGeometry x="667" y="480" width="160" height="30" as="geometry" />
        </mxCell>
        <mxCell id="2LeZSTkO9BxlxIvGosQx-50" value="-description:string" style="text;html=1;strokeColor=none;fillColor=none;align=left;verticalAlign=middle;whiteSpace=wrap;rounded=0;fontSize=18;" vertex="1" parent="1">
          <mxGeometry x="667" y="450" width="163" height="30" as="geometry" />
        </mxCell>
        <mxCell id="2LeZSTkO9BxlxIvGosQx-52" value="" style="endArrow=none;html=1;rounded=0;fontFamily=Helvetica;fontSize=18;fontColor=default;" edge="1" parent="1">
          <mxGeometry width="50" height="50" relative="1" as="geometry">
            <mxPoint x="660" y="510" as="sourcePoint" />
            <mxPoint x="910" y="510" as="targetPoint" />
          </mxGeometry>
        </mxCell>
        <mxCell id="2LeZSTkO9BxlxIvGosQx-53" value="+create()" style="text;html=1;strokeColor=none;fillColor=none;align=left;verticalAlign=middle;whiteSpace=wrap;rounded=0;fontSize=18;" vertex="1" parent="1">
          <mxGeometry x="667" y="524" width="110" height="30" as="geometry" />
        </mxCell>
        <mxCell id="2LeZSTkO9BxlxIvGosQx-54" value="-typeID:int" style="text;html=1;strokeColor=none;fillColor=none;align=left;verticalAlign=middle;whiteSpace=wrap;rounded=0;fontSize=18;" vertex="1" parent="1">
          <mxGeometry x="340" y="420" width="110" height="30" as="geometry" />
        </mxCell>
        <mxCell id="2LeZSTkO9BxlxIvGosQx-55" value="+name:string" style="text;html=1;strokeColor=none;fillColor=none;align=left;verticalAlign=middle;whiteSpace=wrap;rounded=0;fontSize=18;" vertex="1" parent="1">
          <mxGeometry x="340" y="450" width="110" height="30" as="geometry" />
        </mxCell>
        <mxCell id="2LeZSTkO9BxlxIvGosQx-58" value="" style="endArrow=none;html=1;rounded=0;fontFamily=Helvetica;fontSize=18;fontColor=default;" edge="1" parent="1">
          <mxGeometry width="50" height="50" relative="1" as="geometry">
            <mxPoint x="330" y="419" as="sourcePoint" />
            <mxPoint x="580" y="419" as="targetPoint" />
          </mxGeometry>
        </mxCell>
        <mxCell id="2LeZSTkO9BxlxIvGosQx-59" value="" style="endArrow=none;html=1;rounded=0;fontFamily=Helvetica;fontSize=18;fontColor=default;" edge="1" parent="1">
          <mxGeometry width="50" height="50" relative="1" as="geometry">
            <mxPoint x="330" y="479" as="sourcePoint" />
            <mxPoint x="580" y="479" as="targetPoint" />
          </mxGeometry>
        </mxCell>
        <mxCell id="2LeZSTkO9BxlxIvGosQx-60" value="+create()" style="text;html=1;strokeColor=none;fillColor=none;align=left;verticalAlign=middle;whiteSpace=wrap;rounded=0;fontSize=18;" vertex="1" parent="1">
          <mxGeometry x="340" y="480" width="110" height="30" as="geometry" />
        </mxCell>
        <mxCell id="2LeZSTkO9BxlxIvGosQx-61" value="+delete()" style="text;html=1;strokeColor=none;fillColor=none;align=left;verticalAlign=middle;whiteSpace=wrap;rounded=0;fontSize=18;" vertex="1" parent="1">
          <mxGeometry x="340" y="540" width="110" height="30" as="geometry" />
        </mxCell>
        <mxCell id="2LeZSTkO9BxlxIvGosQx-62" value="+update()" style="text;html=1;strokeColor=none;fillColor=none;align=left;verticalAlign=middle;whiteSpace=wrap;rounded=0;fontSize=18;" vertex="1" parent="1">
          <mxGeometry x="340" y="510" width="110" height="30" as="geometry" />
        </mxCell>
        <mxCell id="2LeZSTkO9BxlxIvGosQx-63" value="" style="endArrow=none;html=1;rounded=0;fontFamily=Helvetica;fontSize=18;fontColor=default;exitX=0.007;exitY=0.691;exitDx=0;exitDy=0;exitPerimeter=0;" edge="1" parent="1">
          <mxGeometry width="50" height="50" relative="1" as="geometry">
            <mxPoint x="-10" y="420" as="sourcePoint" />
            <mxPoint x="240" y="420" as="targetPoint" />
          </mxGeometry>
        </mxCell>
        <mxCell id="2LeZSTkO9BxlxIvGosQx-64" value="-userID:int" style="text;html=1;strokeColor=none;fillColor=none;align=left;verticalAlign=middle;whiteSpace=wrap;rounded=0;fontSize=18;" vertex="1" parent="1">
          <mxGeometry y="425" width="110" height="30" as="geometry" />
        </mxCell>
        <mxCell id="2LeZSTkO9BxlxIvGosQx-65" value="" style="endArrow=none;html=1;rounded=0;fontFamily=Helvetica;fontSize=18;fontColor=default;exitX=0.007;exitY=0.691;exitDx=0;exitDy=0;exitPerimeter=0;" edge="1" parent="1">
          <mxGeometry width="50" height="50" relative="1" as="geometry">
            <mxPoint x="-10" y="460" as="sourcePoint" />
            <mxPoint x="240" y="460" as="targetPoint" />
          </mxGeometry>
        </mxCell>
        <mxCell id="2LeZSTkO9BxlxIvGosQx-66" value="+create()" style="text;html=1;strokeColor=none;fillColor=none;align=left;verticalAlign=middle;whiteSpace=wrap;rounded=0;fontSize=18;" vertex="1" parent="1">
          <mxGeometry y="460" width="110" height="30" as="geometry" />
        </mxCell>
        <mxCell id="2LeZSTkO9BxlxIvGosQx-67" value="+delete()" style="text;html=1;strokeColor=none;fillColor=none;align=left;verticalAlign=middle;whiteSpace=wrap;rounded=0;fontSize=18;" vertex="1" parent="1">
          <mxGeometry y="520" width="110" height="30" as="geometry" />
        </mxCell>
        <mxCell id="2LeZSTkO9BxlxIvGosQx-68" value="+update()" style="text;html=1;strokeColor=none;fillColor=none;align=left;verticalAlign=middle;whiteSpace=wrap;rounded=0;fontSize=18;" vertex="1" parent="1">
          <mxGeometry y="490" width="110" height="30" as="geometry" />
        </mxCell>
      </root>
    </mxGraphModel>
  </diagram>
</mxfile>
